<svg width="150" height="41" viewBox="0 0 150 41" fill="none" xmlns="http://www.w3.org/2000/svg">
<mask id="mask0_606_19" style="mask-type:luminance" maskUnits="userSpaceOnUse" x="0" y="0" width="150" height="41">
<path d="M0 0.281982H150V40.282H0V0.281982Z" fill="white"/>
</mask>
<g mask="url(#mask0_606_19)">
<path d="M59.4479 15.5641H61.4769V24.8821H59.4479V23.5401C58.6779 24.6021 57.5879 25.1241 56.1599 25.1241C54.8639 25.1241 53.7739 24.6581 52.8539 23.7081C51.9339 22.7581 51.4819 21.5841 51.4819 20.2231C51.4819 18.8441 51.9329 17.6891 52.8539 16.7381C53.7739 15.7881 54.8639 15.3221 56.1599 15.3221C57.5879 15.3221 58.6779 15.8441 59.4479 16.8881V15.5641ZM56.4799 23.2041C57.3249 23.2041 58.0389 22.9251 58.6029 22.3661C59.1659 21.7881 59.4479 21.0801 59.4479 20.2231C59.4479 19.3665 59.1663 18.6585 58.6029 18.0991C58.0389 17.5211 57.3249 17.2421 56.4799 17.2421C55.6349 17.2421 54.9199 17.5221 54.3569 18.0991C53.7929 18.6585 53.5109 19.3665 53.5109 20.2231C53.5109 21.0801 53.7929 21.7891 54.3569 22.3661C54.9199 22.9261 55.6339 23.2041 56.4799 23.2041ZM67.2639 19.3471C68.7099 19.6641 70.5889 20.2611 70.5509 22.2541C70.5509 23.1491 70.1949 23.8571 69.4999 24.3601C68.8049 24.8631 67.9399 25.1241 66.8879 25.1241C65.0279 25.1241 63.6569 24.3041 63.0559 22.9441L64.8029 21.9381C65.1229 22.8321 65.8179 23.2791 66.8879 23.2791C67.9579 23.2791 68.4849 22.9251 68.4849 22.2361C68.4849 21.6391 67.6959 21.2861 66.6999 21.0431C65.2909 20.6891 63.3939 20.1301 63.4309 18.1731C63.4309 17.3161 63.7509 16.6271 64.4079 16.1051C65.0659 15.5831 65.8919 15.3221 66.8689 15.3221C68.4289 15.3221 69.6879 16.0491 70.3449 17.2601L68.6349 18.2101C68.3149 17.5031 67.7149 17.1481 66.8689 17.1481C66.0989 17.1481 65.4979 17.4841 65.4979 18.1361C65.4979 18.7511 66.2879 19.0681 67.2639 19.3471ZM77.4939 17.5021H75.1639V21.9741C75.1639 23.1671 75.9539 23.1481 77.4939 23.0741V24.8811C74.3939 25.2541 73.1359 24.4161 73.1359 21.9741V17.5021H71.4069V15.5641H73.1359V13.5501L75.1649 12.9541V15.5631H77.4949L77.4939 17.5021ZM86.3499 15.5641H88.3799V24.8821H86.3499V23.5401C85.5799 24.6021 84.4899 25.1241 83.0629 25.1241C81.7669 25.1241 80.6769 24.6581 79.7569 23.7081C78.8359 22.7581 78.3849 21.5841 78.3849 20.2231C78.3849 18.8441 78.8349 17.6891 79.7559 16.7381C80.6759 15.7881 81.7659 15.3221 83.0629 15.3221C84.4909 15.3221 85.5799 15.8441 86.3499 16.8881V15.5641ZM83.3819 23.2041C84.2269 23.2041 84.9419 22.9251 85.5049 22.3661C86.0689 21.7881 86.3499 21.0801 86.3499 20.2231C86.3499 19.3665 86.0683 18.6585 85.5049 18.0991C84.9409 17.5211 84.2269 17.2421 83.3819 17.2421C82.5369 17.2421 81.8219 17.5221 81.2589 18.0991C80.6949 18.6585 80.4133 19.3665 80.4139 20.2231C80.4139 21.0801 80.6949 21.7891 81.2589 22.3661C81.8229 22.9261 82.5369 23.2041 83.3819 23.2041ZM99.1579 19.1611V24.8811H97.1299V19.3661C97.1299 17.9681 96.3219 17.2041 95.0259 17.2041C93.5979 17.2041 92.6399 18.0801 92.6399 19.8881V24.8821H90.6099V15.5641H92.6389V16.7571C93.2589 15.8071 94.2169 15.3221 95.5509 15.3221C97.7109 15.3221 99.1579 16.7761 99.1579 19.1621M108.683 15.5641H110.712V24.8821H108.683V23.5401C107.913 24.6021 106.823 25.1241 105.395 25.1241C104.099 25.1241 103.009 24.6581 102.089 23.7081C101.168 22.7581 100.717 21.5841 100.717 20.2231C100.717 18.8441 101.168 17.6891 102.089 16.7381C103.009 15.7881 104.099 15.3221 105.395 15.3221C106.823 15.3221 107.913 15.8441 108.683 16.8881V15.5641ZM105.715 23.2041C106.56 23.2041 107.274 22.9251 107.838 22.3661C108.401 21.7881 108.683 21.0801 108.683 20.2231C108.683 19.3665 108.401 18.6585 107.838 18.0991C107.274 17.5211 106.56 17.2421 105.715 17.2421C104.87 17.2421 104.156 17.5221 103.592 18.0991C103.028 18.6585 102.746 19.3665 102.747 20.2231C102.747 21.0801 103.028 21.7891 103.592 22.3661C104.156 22.9261 104.869 23.2041 105.715 23.2041ZM126.325 19.1611V24.8821H124.296V19.3661C124.296 17.9691 123.489 17.2051 122.193 17.2051C120.764 17.2051 119.806 18.0811 119.806 19.8881V24.8821H117.778V11.8381H119.806V16.7581C120.427 15.8071 121.384 15.3231 122.718 15.3231C124.878 15.3231 126.325 16.7761 126.325 19.1611ZM134.787 15.5641H136.816V24.8811H134.787V23.6881C134.167 24.6381 133.209 25.1231 131.875 25.1231C129.715 25.1231 128.268 23.6701 128.268 21.2841V15.5641H130.297V21.0791C130.297 22.4771 131.106 23.2411 132.402 23.2411C133.829 23.2411 134.787 22.3651 134.787 20.5581V15.5641ZM147.661 16.7391C148.581 17.6891 149.032 18.8441 149.032 20.2241C149.032 21.5841 148.581 22.7581 147.661 23.7081C146.74 24.6581 145.65 25.1251 144.354 25.1251C142.927 25.1251 141.837 24.6031 141.066 23.5401V24.8821H139.037V11.8381H141.066V16.8881C141.837 15.8441 142.927 15.3231 144.354 15.3231C145.65 15.3231 146.74 15.7881 147.661 16.7391ZM144.035 23.2051C144.88 23.2051 145.594 22.9251 146.157 22.3661C146.721 21.7891 147.003 21.0811 147.003 20.2241C147.003 19.3661 146.721 18.6578 146.157 18.0991C145.594 17.5221 144.88 17.2421 144.035 17.2421C143.189 17.2421 142.475 17.5221 141.912 18.0991C141.348 18.6585 141.066 19.3668 141.066 20.2241C141.066 21.0811 141.348 21.7891 141.912 22.3661C142.475 22.9261 143.189 23.2051 144.035 23.2051Z" fill="#34DE61"/>
<path d="M38.65 25.705C38.62 25.8084 38.589 25.911 38.557 26.013L38.527 26.11L38.407 26.477L38.379 26.56C38.335 26.6854 38.2903 26.8104 38.245 26.935L38.213 27.022C38.1676 27.1447 38.121 27.2667 38.073 27.388L38.037 27.479C37.9883 27.6004 37.9383 27.7207 37.887 27.84L37.849 27.93C37.7996 28.0454 37.7493 28.1597 37.698 28.273L37.655 28.368L37.498 28.702L37.45 28.801L37.287 29.125L37.235 29.226C37.179 29.334 37.1216 29.4417 37.063 29.549L37.013 29.643C36.9523 29.7524 36.8906 29.8614 36.828 29.97L36.772 30.067C36.71 30.1737 36.6466 30.2794 36.582 30.384L36.524 30.48L36.333 30.783L36.267 30.885C36.2036 30.9824 36.14 31.0784 36.076 31.173L36.002 31.282L35.806 31.562L35.728 31.67L35.526 31.946L35.447 32.05L35.237 32.323L35.153 32.428L34.933 32.699L34.849 32.8C34.6784 33.003 34.5041 33.2027 34.326 33.399L34.211 33.524C33.9251 33.8345 33.6289 34.1353 33.323 34.426L33.223 34.522L32.972 34.752L32.85 34.862C32.6584 35.0323 32.4641 35.1993 32.267 35.363L32.14 35.468C31.6412 35.8727 31.1233 36.2532 30.588 36.608C30.3652 36.7564 30.1391 36.8997 29.91 37.038L29.788 37.112L29.505 37.278L29.382 37.348L29.091 37.51L28.972 37.573C28.8706 37.6277 28.769 37.681 28.667 37.733L28.557 37.789C28.4483 37.8444 28.339 37.8984 28.229 37.951L28.139 37.994C28.023 38.05 27.9063 38.1044 27.789 38.157L27.693 38.199C27.5716 38.2537 27.449 38.307 27.325 38.359L27.246 38.392C27.1213 38.4454 26.9953 38.4964 26.868 38.545L26.791 38.575C26.667 38.623 26.5426 38.67 26.418 38.716L26.34 38.744C26.2146 38.7894 26.089 38.8334 25.963 38.876L25.887 38.901C25.759 38.9437 25.6303 38.985 25.501 39.025L25.427 39.048C25.297 39.088 25.1663 39.1267 25.035 39.164L24.963 39.184C24.8283 39.222 24.693 39.2587 24.557 39.294L24.497 39.309C24.3516 39.3457 24.206 39.381 24.06 39.415L24.032 39.421C23.876 39.457 23.7193 39.491 23.562 39.523L23.546 39.526C23.3926 39.5567 23.238 39.586 23.082 39.614L23.044 39.621C22.8953 39.647 22.746 39.6714 22.596 39.694L22.549 39.701C22.4016 39.7237 22.254 39.7444 22.106 39.763L22.053 39.77C21.9052 39.7884 21.7572 39.8051 21.609 39.82L21.558 39.825C21.4073 39.8397 21.256 39.853 21.104 39.865L21.06 39.868C20.9046 39.88 20.7486 39.89 20.592 39.898L20.561 39.899C20.3983 39.9077 20.235 39.914 20.071 39.918H20.058C19.7187 39.9267 19.3793 39.9267 19.04 39.918H19.027C18.8636 39.914 18.7006 39.9077 18.538 39.899L18.506 39.898C18.3502 39.8898 18.1945 39.8798 18.039 39.868L17.994 39.865C17.8428 39.8533 17.6918 39.84 17.541 39.825L17.49 39.82C17.3418 39.805 17.1938 39.7883 17.046 39.77L16.993 39.763C16.845 39.7437 16.6973 39.723 16.55 39.701L16.502 39.694C16.3526 39.672 16.204 39.6477 16.056 39.621L16.016 39.614C15.8616 39.5866 15.7076 39.5573 15.554 39.526L15.537 39.523C15.3802 39.4912 15.2239 39.4576 15.068 39.422L15.037 39.414C14.8916 39.3807 14.7466 39.3457 14.602 39.309L14.542 39.293C14.4062 39.2583 14.2709 39.2219 14.136 39.184L14.063 39.164C13.933 39.1274 13.803 39.089 13.673 39.049L13.597 39.025C13.469 38.985 13.3413 38.944 13.214 38.902L13.134 38.875C13.0086 38.833 12.884 38.7897 12.76 38.745L12.68 38.715L12.31 38.576L12.229 38.545L11.857 38.394L11.769 38.357L11.406 38.2L11.309 38.156L10.962 37.996L10.867 37.949L10.542 37.789L10.43 37.732L10.127 37.573L10.007 37.508L9.71697 37.348L9.59297 37.278C9.49831 37.2234 9.40431 37.168 9.31097 37.112L9.18897 37.039C8.54437 36.6456 7.92147 36.2176 7.32297 35.757L7.19997 35.66C6.74263 35.3001 6.30121 34.9204 5.87697 34.522L5.77597 34.426C5.47064 34.1344 5.17417 33.8336 4.88697 33.524L4.77297 33.399L4.56697 33.169L4.46097 33.048C4.39031 32.966 4.32031 32.8837 4.25097 32.801L4.16297 32.696C3.88942 32.3646 3.62661 32.0244 3.37497 31.676L3.28897 31.556L3.10097 31.288L3.01897 31.166L2.83497 30.89L2.76097 30.776L2.57797 30.484L2.51397 30.38L2.32997 30.072L2.26797 29.965L2.08797 29.647L2.03197 29.544L1.86797 29.234L1.80797 29.119L1.65197 28.806L1.59797 28.695L1.44797 28.375L1.39797 28.266C1.34731 28.1554 1.29797 28.0444 1.24997 27.933L1.20897 27.836L1.06197 27.479L1.02597 27.388C0.978057 27.2668 0.931387 27.1452 0.885974 27.023L0.851974 26.931C0.807307 26.8077 0.763307 26.6844 0.719974 26.561L0.691974 26.477L0.571974 26.11L0.541974 26.013L0.448974 25.705C0.336267 25.2831 0.3826 24.8345 0.579157 24.4445C0.775714 24.0545 1.10878 23.7504 1.51497 23.59C5.81697 21.904 12.299 20.831 19.549 20.831C26.8 20.831 33.282 21.904 37.584 23.591C37.9898 23.7516 38.3225 24.0556 38.5188 24.4453C38.7151 24.8351 38.7615 25.2834 38.649 25.705M0.449974 14.693C0.479974 14.5897 0.51064 14.4864 0.541974 14.383L0.571974 14.291C0.611974 14.1664 0.651974 14.0424 0.691974 13.919L0.719974 13.84C0.763307 13.7134 0.807974 13.5877 0.853974 13.463L0.883974 13.379C0.93064 13.2544 0.977974 13.131 1.02597 13.009L1.06097 12.922C1.10964 12.8 1.15964 12.679 1.21097 12.559L1.24797 12.471C1.29797 12.3557 1.34831 12.2414 1.39897 12.128L1.44597 12.026C1.49597 11.918 1.54664 11.8107 1.59797 11.704L1.65097 11.594C1.70297 11.4874 1.75597 11.3817 1.80997 11.277L1.86497 11.169C1.92031 11.063 1.97664 10.9577 2.03397 10.853L2.08897 10.752C2.14764 10.6454 2.20764 10.539 2.26897 10.433L2.32897 10.327L2.51597 10.015L2.57597 9.91702C2.63664 9.81702 2.69864 9.71869 2.76197 9.62202L2.83497 9.50802L3.01997 9.23002L3.10097 9.11002L3.29097 8.84002L3.37297 8.72402C3.43764 8.63402 3.50331 8.54469 3.56997 8.45602L3.65397 8.34602C3.72264 8.25602 3.79197 8.16602 3.86197 8.07602L3.94497 7.97102C4.01831 7.87969 4.09164 7.78936 4.16497 7.70002L4.24997 7.59802C4.32131 7.51336 4.39297 7.42936 4.46497 7.34602L4.56297 7.23402L4.77697 6.99402L4.88297 6.87902C4.95497 6.80102 5.02731 6.72402 5.09997 6.64802L5.21097 6.53202C5.39558 6.34163 5.58395 6.15493 5.77597 5.97202L5.87597 5.87702L6.12697 5.64502L6.24897 5.53602C6.55835 5.26036 6.87583 4.99391 7.20097 4.73702L7.32297 4.64202L7.57397 4.45102L7.71397 4.34702C8.19079 3.99636 8.68294 3.66704 9.18897 3.36002L9.30897 3.28702L9.59697 3.11902L9.71197 3.05302C9.80997 2.99769 9.90831 2.94336 10.007 2.89002L10.127 2.82502C10.227 2.77102 10.328 2.71802 10.43 2.66602L10.542 2.60902L10.867 2.44902L10.962 2.40302C11.0766 2.34836 11.1923 2.29502 11.309 2.24302L11.406 2.19902C11.526 2.14502 11.647 2.09236 11.769 2.04102L11.857 2.00402C11.9796 1.95269 12.1036 1.90269 12.229 1.85402L12.31 1.82202C12.4333 1.77402 12.5566 1.72736 12.68 1.68202L12.76 1.65402C12.884 1.60869 13.0086 1.56502 13.134 1.52302L13.214 1.49602C13.3406 1.45402 13.4683 1.41302 13.597 1.37302L13.673 1.35002C13.803 1.31002 13.933 1.27136 14.063 1.23402L14.136 1.21402C14.2706 1.17669 14.4056 1.14002 14.541 1.10402L14.602 1.08902C14.7473 1.05236 14.8923 1.01736 15.037 0.984023L15.068 0.977023C15.2233 0.941023 15.3796 0.907023 15.537 0.875023L15.554 0.872023C15.7073 0.841356 15.8613 0.812023 16.016 0.784023L16.056 0.777023C16.204 0.751023 16.3526 0.72669 16.502 0.704023L16.55 0.697023C16.6966 0.675023 16.8443 0.654356 16.993 0.635023L17.046 0.629023C17.1926 0.610356 17.3406 0.59369 17.49 0.579023L17.541 0.573023C17.6916 0.558356 17.8426 0.545023 17.994 0.533023L18.04 0.530023C18.1953 0.51869 18.351 0.50869 18.507 0.500023H18.538C18.7006 0.492023 18.8636 0.48569 19.027 0.481023H19.04C19.3793 0.472797 19.7187 0.472797 20.058 0.481023H20.072C20.2346 0.485023 20.3976 0.491356 20.561 0.500023L20.592 0.502023C20.7486 0.509356 20.9046 0.519023 21.06 0.531023L21.104 0.534023C21.256 0.546023 21.4073 0.559356 21.558 0.574023L21.608 0.579023C21.7573 0.594356 21.9056 0.611023 22.053 0.629023L22.106 0.636023C22.254 0.656023 22.4016 0.67669 22.549 0.698023L22.596 0.705023C22.7466 0.72769 22.896 0.752356 23.044 0.779023L23.082 0.785023C23.2373 0.813023 23.392 0.842356 23.546 0.873023L23.561 0.876023C23.719 0.908023 23.8756 0.942023 24.031 0.978023L24.06 0.985023C24.206 1.01836 24.3513 1.05336 24.496 1.09002L24.557 1.10602C24.6936 1.14069 24.829 1.17702 24.963 1.21502L25.035 1.23502C25.167 1.27236 25.2976 1.31102 25.427 1.35102L25.502 1.37402C25.6306 1.41402 25.759 1.45536 25.887 1.49802L25.963 1.52302C26.0896 1.56569 26.2153 1.60969 26.34 1.65502L26.418 1.68302C26.5433 1.72902 26.6676 1.77602 26.791 1.82402L26.868 1.85402C26.9946 1.90336 27.1206 1.95436 27.246 2.00702L27.326 2.04002C27.4486 2.09202 27.571 2.14536 27.693 2.20002L27.789 2.24302C27.9063 2.29636 28.023 2.35036 28.139 2.40502L28.229 2.44802C28.339 2.50136 28.4483 2.55536 28.557 2.61002L28.667 2.66602L28.972 2.82602L29.09 2.88902L29.386 3.05402L29.502 3.12002C29.598 3.17536 29.6936 3.23136 29.789 3.28802L29.91 3.36102C30.1916 3.53276 30.4693 3.7108 30.743 3.89502C31.0959 4.13393 31.4411 4.38406 31.778 4.64502L31.896 4.73702C31.9793 4.80169 32.0613 4.86736 32.142 4.93402L32.264 5.03402C32.3426 5.09869 32.421 5.16436 32.499 5.23102L32.623 5.33702C32.8263 5.51334 33.0263 5.69337 33.223 5.87702L33.323 5.97302L33.552 6.19502L33.669 6.31102C33.8547 6.49708 34.0367 6.68679 34.215 6.88002L34.322 6.99502L34.538 7.23702L34.632 7.34502C34.7053 7.42969 34.7776 7.51469 34.849 7.60002L34.931 7.69702L35.154 7.97202L35.234 8.07402C35.3073 8.16736 35.38 8.26102 35.452 8.35502L35.525 8.45302C35.5943 8.54502 35.6623 8.63736 35.729 8.73002L35.804 8.83502C35.8706 8.92836 35.9366 9.02269 36.002 9.11802L36.074 9.22502C36.14 9.32036 36.2043 9.41702 36.267 9.51502L36.333 9.61502C36.3983 9.71769 36.4626 9.82036 36.526 9.92302L36.581 10.013C36.645 10.1184 36.7083 10.225 36.771 10.333L36.828 10.43C36.8906 10.538 36.952 10.647 37.012 10.757L37.062 10.848C37.122 10.958 37.1806 11.068 37.238 11.178L37.286 11.271C37.3413 11.3804 37.396 11.49 37.45 11.6L37.498 11.698C37.5513 11.8087 37.604 11.9207 37.656 12.034L37.696 12.122C37.7493 12.238 37.8013 12.3554 37.852 12.474L37.887 12.556C37.9376 12.6774 37.9876 12.7997 38.037 12.923L38.072 13.009C38.1206 13.1324 38.168 13.2564 38.214 13.381L38.244 13.461C38.29 13.5864 38.335 13.713 38.379 13.841L38.406 13.921L38.528 14.291L38.556 14.384C38.588 14.4874 38.619 14.5907 38.649 14.694C38.7617 15.1158 38.7156 15.5643 38.5192 15.9543C38.3228 16.3443 37.99 16.6485 37.584 16.809C33.282 18.495 26.8 19.568 19.549 19.568C12.298 19.568 5.81697 18.494 1.51497 16.808C1.10878 16.6476 0.775714 16.3435 0.579157 15.9536C0.3826 15.5636 0.337267 15.1149 0.449974 14.693Z" fill="#34DE61" fill-opacity="0.1"/>
<path d="M36.224 23.102C34.838 30.992 27.9 36.99 19.55 36.99C11.2 36.99 4.262 30.991 2.876 23.102C7.126 21.7 13.027 20.832 19.55 20.832C26.074 20.832 31.973 21.7 36.224 23.102ZM2.875 17.296C4.262 9.40596 11.199 3.40796 19.55 3.40796C27.901 3.40796 34.839 9.40596 36.225 17.296C31.974 18.698 26.074 19.566 19.55 19.566C13.027 19.566 7.126 18.698 2.875 17.296Z" fill="#34DE61" fill-opacity="0.3"/>
<path d="M33.3588 22.296C32.3388 28.953 26.5448 34.054 19.5488 34.054C12.5538 34.054 6.75877 28.953 5.73877 22.296C9.61377 21.374 14.3858 20.83 19.5488 20.83C24.7118 20.83 29.4848 21.374 33.3588 22.296ZM5.73877 18.099C6.75877 11.443 12.5538 6.34204 19.5488 6.34204C26.5448 6.34204 32.3388 11.442 33.3588 18.099C29.4848 19.021 24.7118 19.565 19.5488 19.565C14.3858 19.565 9.61377 19.021 5.73977 18.1" fill="#34DE61" fill-opacity="0.4"/>
<path d="M30.454 21.7071C29.714 27.0251 25.114 31.1211 19.549 31.1211C13.984 31.1211 9.38504 27.0251 8.64404 21.7071C11.902 21.1481 15.612 20.8321 19.549 20.8321C23.486 20.8321 27.197 21.1481 30.454 21.7071ZM8.64404 18.6921C9.38404 13.3741 13.984 9.27808 19.549 9.27808C25.114 9.27808 29.714 13.3741 30.454 18.6921C27.196 19.2511 23.486 19.5671 19.549 19.5671C15.612 19.5671 11.902 19.2511 8.64404 18.6921Z" fill="#34DE61" fill-opacity="0.6"/>
<path d="M27.5258 21.2851C26.9918 25.1821 23.6238 28.1851 19.5488 28.1851C15.4738 28.1851 12.1068 25.1821 11.5718 21.2851C14.2198 20.9798 16.8832 20.8283 19.5488 20.8311C22.3498 20.8311 25.0358 20.9911 27.5258 21.2851ZM11.5718 19.1131C12.1068 15.2161 15.4738 12.2131 19.5488 12.2131C23.6238 12.2131 26.9918 15.2161 27.5258 19.1131C25.0358 19.4071 22.3498 19.5671 19.5488 19.5671C16.7488 19.5671 14.0628 19.4071 11.5718 19.1131Z" fill="#34DE61"/>
</g>
</svg>
