<svg width="218" height="40" viewBox="0 0 218 40" fill="none" xmlns="http://www.w3.org/2000/svg">
<path d="M70.5345 5.10853C70.3983 5.25504 70.2718 5.40725 70.1366 5.56353C69.8018 6.01155 69.5352 6.49279 69.3429 6.99609C68.859 7.99802 68.6342 9.07436 68.6834 10.1542C65.9033 7.47307 59.9998 5.36411 55 7.98586C71.336 10.0989 78.3902 20.8577 74.7639 36.4156H74.8787C87.3977 27.4133 75.6734 17.7785 73.3904 14.517C71.6385 12.0084 71.1064 9.18237 72.4926 7.18411C73.1239 6.35632 74.0372 5.47888 75.1734 5.11179C76.0148 4.78489 76.9345 4.62372 77.8619 4.64065C78.7894 4.65759 79.6998 4.85217 80.5234 5.20946C81.2896 5.54382 81.9498 6.02594 82.4494 6.61597C83.5223 7.91504 83.2198 10.1502 82.5651 11.0113C81.9095 11.8725 82.0564 11.5957 81.7461 11.8399C80.9319 12.4602 79.3357 12.4895 78.6042 12.1647C78.1802 12.0315 77.8343 11.766 77.6393 11.424C77.6109 11.3831 77.596 11.3366 77.596 11.2893C77.596 11.242 77.6109 11.1955 77.6393 11.1546C77.669 11.1159 77.7088 11.0832 77.7556 11.059C77.8023 11.0348 77.855 11.0196 77.9097 11.0146C78.3591 11.013 78.8005 10.9149 79.1917 10.7297C79.5808 10.5457 79.9047 10.2804 80.1304 9.96214C80.4209 9.53735 80.5241 9.04079 80.4222 8.55888C80.3191 8.07486 80.0178 7.63597 79.5701 7.3176C79.1876 7.07297 78.7419 6.90675 78.2687 6.83226C77.7956 6.75776 77.3081 6.77708 76.8455 6.88865C73.0597 7.84423 73.4692 12.6873 77.0157 14.2468C77.8334 14.6184 78.7467 14.8182 79.6771 14.8288C80.4903 14.8556 81.3016 14.7474 82.0613 14.5089C82.8187 14.2719 83.5114 13.9098 84.0982 13.4442C84.5601 13.081 84.9609 12.667 85.2898 12.2135C85.8192 11.4903 86.1852 10.6919 86.3695 9.85795C86.5906 10.005 86.8263 10.1339 87.0767 10.2446C89.063 11.1188 92.0969 9.96214 92.7642 9.08469C92.9568 8.86004 93.092 8.60609 93.162 8.33748C93.1782 8.27471 93.1694 8.20922 93.1367 8.15109C93.1091 8.09974 93.0649 8.0559 93.009 8.02453C92.9531 7.99317 92.8879 7.97554 92.8206 7.97365C92.7638 7.96983 92.7067 7.9765 92.6533 7.99318C91.059 8.46262 89.3099 8.40113 87.7683 7.82144C87.0187 7.55353 86.3852 7.09987 85.9532 6.52155C85.5553 6.08283 85.3248 5.54725 84.924 5.12807C84.1642 4.29124 83.1913 3.60642 82.0759 3.1233C80.7284 2.53233 79.2287 2.22581 77.7073 2.23039C76.3196 2.21836 74.9468 2.47082 73.6929 2.96865C72.4489 3.46397 71.3584 4.19294 70.5062 5.09876M160.461 13.3702C160.146 11.8428 159.849 10.3131 159.568 8.78109C157.406 8.30653 155.184 8.0494 152.95 8.01516C146.16 8.01516 142.112 10.7338 142.112 13.9367C142.112 17.6923 147.423 19.3226 150.793 20.4874C154.742 21.819 157.631 22.983 157.631 25.4435C157.631 27.9033 155.321 29.4343 151.317 29.4343C145.846 29.4343 143.479 26.0727 142.69 24.0435L141.108 24.2796C141.477 25.8733 142.161 28.7368 142.531 29.4343C143.388 29.7192 144.265 29.9518 145.162 30.1319C146.853 30.4567 148.582 30.6235 150.319 30.6309C157.317 30.6309 162 27.8349 162 24.3471C162 20.5867 157.036 19.0556 152.9 17.6923C148.763 16.3281 146.215 15.1999 146.215 12.7719C146.215 10.96 148.002 9.14737 152.056 9.14737C156.633 9.14737 158.057 11.4443 158.95 13.5378L160.478 13.375L160.461 13.3702ZM125.802 9.03911V8.06969H115.836V9.0383C118.792 9.13841 119.763 9.59179 119.972 11.1863C120.229 13.095 120.328 15.016 120.27 16.9353V25.4574H120.144L102.494 8.06888H96.9352V9.10179C98.4459 9.26051 99.2678 9.55434 100.046 10.3154C100.824 11.0764 100.895 11.2848 100.895 13.8178V21.4381C100.895 24.6092 100.769 26.2852 100.636 27.3588C100.426 29.0575 99.3291 29.506 96.9236 29.624V30.5934H106.929V29.6256C104.06 29.4897 103.067 29.073 102.875 27.3059C102.671 25.36 102.586 23.4066 102.622 21.4535V12.7442H102.709L120.397 30.6024H121.992V16.9361C121.933 14.9826 122.018 13.0283 122.245 11.0829C122.41 9.5926 123.426 9.13923 125.791 9.03993L125.802 9.03911ZM140.457 30.5804V29.6118C136.332 29.4026 135.929 29.2309 135.929 26.2502V12.3967C135.929 9.45097 136.332 9.22469 140.457 9.03911V8.06969H127.121V9.0383C131.245 9.24748 131.654 9.45097 131.654 12.3959V26.2493C131.654 29.1942 131.245 29.4205 127.121 29.611V30.5804H140.457Z" fill="#43C064"/>
</svg>
