<svg xmlns="http://www.w3.org/2000/svg" width="150" height="41" fill="none"><g clip-path="url(#PartnerAstanaHubLogo_svg__a)"><path fill="#678AA1" d="M59.448 15.564h2.029v9.318h-2.029V23.54c-.77 1.062-1.86 1.584-3.288 1.584-1.296 0-2.386-.466-3.306-1.416s-1.372-2.124-1.372-3.485c0-1.379.451-2.534 1.372-3.485.92-.95 2.01-1.416 3.306-1.416 1.428 0 2.518.522 3.288 1.566zm-2.968 7.64c.845 0 1.559-.279 2.123-.838.563-.578.845-1.286.845-2.143q0-1.285-.845-2.124c-.564-.578-1.278-.857-2.123-.857s-1.56.28-2.123.857q-.846.839-.846 2.124c0 .857.282 1.566.846 2.143.563.56 1.277.839 2.123.839M67.264 19.347c1.446.317 3.325.914 3.287 2.907 0 .895-.356 1.603-1.051 2.106s-1.56.764-2.612.764c-1.86 0-3.231-.82-3.832-2.18l1.747-1.006q.48 1.341 2.085 1.341c1.07 0 1.597-.354 1.597-1.043 0-.597-.789-.95-1.785-1.193-1.409-.354-3.306-.913-3.269-2.87 0-.857.32-1.546.977-2.068.658-.522 1.484-.783 2.461-.783 1.56 0 2.819.727 3.476 1.938l-1.71.95c-.32-.707-.92-1.062-1.766-1.062-.77 0-1.371.336-1.371.988 0 .615.79.932 1.766 1.211M77.494 17.502h-2.33v4.472c0 1.193.79 1.174 2.33 1.1v1.807c-3.1.373-4.358-.465-4.358-2.907v-4.472h-1.729v-1.938h1.729V13.55l2.029-.596v2.609h2.33zM86.35 15.564h2.03v9.318h-2.03V23.54c-.77 1.062-1.86 1.584-3.287 1.584-1.296 0-2.386-.466-3.306-1.416-.921-.95-1.372-2.124-1.372-3.485 0-1.379.45-2.534 1.371-3.485.92-.95 2.01-1.416 3.307-1.416 1.428 0 2.517.522 3.287 1.566zm-2.968 7.64c.845 0 1.56-.279 2.123-.838.564-.578.845-1.286.845-2.143q0-1.285-.845-2.124c-.564-.578-1.278-.857-2.123-.857s-1.56.28-2.123.857q-.846.839-.845 2.124c0 .857.281 1.566.845 2.143.564.56 1.278.839 2.123.839M99.158 19.161v5.72H97.13v-5.515c0-1.398-.808-2.162-2.104-2.162-1.428 0-2.386.876-2.386 2.684v4.994H90.61v-9.318h2.029v1.193c.62-.95 1.578-1.435 2.912-1.435 2.16 0 3.607 1.454 3.607 3.84M108.683 15.564h2.029v9.318h-2.029V23.54c-.77 1.062-1.86 1.584-3.288 1.584-1.296 0-2.386-.466-3.306-1.416-.921-.95-1.372-2.124-1.372-3.485 0-1.379.451-2.534 1.372-3.485.92-.95 2.01-1.416 3.306-1.416 1.428 0 2.518.522 3.288 1.566zm-2.968 7.64c.845 0 1.559-.279 2.123-.838.563-.578.845-1.286.845-2.143q0-1.285-.845-2.124c-.564-.578-1.278-.857-2.123-.857s-1.559.28-2.123.857q-.846.839-.845 2.124c0 .857.281 1.566.845 2.143.564.56 1.277.839 2.123.839M126.325 19.161v5.721h-2.029v-5.516c0-1.397-.807-2.161-2.103-2.161-1.429 0-2.387.876-2.387 2.683v4.994h-2.028V11.838h2.028v4.92c.621-.951 1.578-1.435 2.912-1.435 2.16 0 3.607 1.453 3.607 3.838M134.787 15.564h2.029v9.317h-2.029v-1.193c-.62.95-1.578 1.435-2.912 1.435-2.16 0-3.607-1.453-3.607-3.839v-5.72h2.029v5.515c0 1.398.809 2.162 2.105 2.162 1.427 0 2.385-.876 2.385-2.683zM147.661 16.739c.92.95 1.371 2.105 1.371 3.485 0 1.36-.451 2.534-1.371 3.484-.921.95-2.011 1.417-3.307 1.417-1.427 0-2.517-.522-3.288-1.585v1.342h-2.029V11.838h2.029v5.05c.771-1.044 1.861-1.565 3.288-1.565 1.296 0 2.386.465 3.307 1.416m-3.626 6.466c.845 0 1.559-.28 2.122-.839.564-.577.846-1.285.846-2.142q0-1.287-.846-2.125c-.563-.577-1.277-.857-2.122-.857-.846 0-1.56.28-2.123.857q-.846.839-.846 2.125c0 .857.282 1.565.846 2.142.563.56 1.277.84 2.123.84"></path><path fill="#DEEAF1" d="M38.65 25.705q-.045.155-.093.308l-.03.097-.12.367-.028.083q-.066.188-.134.375l-.032.087q-.068.184-.14.366l-.036.091q-.073.182-.15.361l-.038.09q-.074.173-.151.343l-.043.095-.157.334-.048.099-.163.324-.052.101q-.084.162-.172.323l-.05.094q-.091.164-.185.327l-.056.097q-.093.16-.19.317l-.058.096-.191.303-.066.102q-.095.146-.191.288l-.074.109-.196.28-.078.108-.202.276-.079.104-.21.273-.084.105-.22.271-.084.101a21 21 0 0 1-.523.599l-.115.125a19 19 0 0 1-.888.902l-.1.096-.251.23-.122.11a23 23 0 0 1-.583.501l-.127.105a20 20 0 0 1-1.552 1.14 18 18 0 01-.678.43l-.122.074-.283.166-.123.07-.291.162-.119.063q-.152.082-.305.16l-.11.056q-.163.083-.328.162l-.09.043q-.174.084-.35.163l-.096.042q-.182.082-.368.16l-.079.033q-.187.08-.378.153l-.077.03q-.186.072-.373.141l-.078.028q-.188.068-.377.132l-.076.025q-.192.064-.386.124l-.074.023q-.195.06-.392.116l-.072.02q-.202.057-.406.11l-.06.015q-.218.055-.437.106l-.028.006q-.234.054-.47.102l-.016.003q-.23.046-.464.088l-.038.007q-.223.039-.448.073l-.047.007q-.221.034-.443.062l-.053.007a19 19 0 0 1-.444.05l-.051.005q-.226.022-.454.04l-.044.003q-.233.018-.468.03l-.031.001q-.244.013-.49.019h-.013a20 20 0 0 1-1.018 0h-.013q-.245-.006-.489-.019l-.032-.001a20 20 0 0 1-.467-.03l-.045-.003a21 21 0 0 1-.453-.04l-.051-.005a20 20 0 0 1-.444-.05l-.053-.007q-.222-.029-.443-.062l-.048-.007q-.224-.033-.446-.073l-.04-.007a19 19 0 0 1-.462-.088l-.017-.003a20 20 0 0 1-.469-.101l-.031-.008q-.218-.05-.435-.105l-.06-.016a18 18 0 0 1-.406-.109l-.073-.02q-.195-.055-.39-.115l-.076-.024q-.192-.06-.383-.123l-.08-.027q-.188-.063-.374-.13l-.08-.03-.37-.139-.081-.031-.372-.151-.088-.037-.363-.157-.097-.044-.347-.16-.095-.047-.325-.16-.112-.057-.303-.159-.12-.065-.29-.16-.124-.07q-.142-.082-.282-.166l-.122-.073a21 21 0 0 1-1.866-1.282L7.2 35.66a20 20 0 0 1-1.323-1.138l-.101-.096a21 21 0 0 1-.889-.902l-.114-.125-.206-.23-.106-.121q-.106-.123-.21-.247l-.088-.105a20 20 0 0 1-.788-1.02l-.086-.12-.188-.268-.082-.122-.184-.276-.074-.114-.183-.292-.064-.104-.184-.308-.062-.107-.18-.318-.056-.103-.164-.31-.06-.115-.156-.313-.054-.111-.15-.32-.05-.109q-.076-.166-.148-.333l-.041-.097-.147-.357-.036-.091a19 19 0 0 1-.14-.365l-.034-.092q-.067-.185-.132-.37l-.028-.084-.12-.367-.03-.097-.093-.308a1.78 1.78 0 0 1 1.066-2.115c4.302-1.686 10.784-2.759 18.034-2.759 7.251 0 13.733 1.073 18.035 2.76a1.78 1.78 0 0 1 1.065 2.114M.45 14.693q.045-.155.092-.31l.03-.092q.06-.187.12-.372l.028-.079q.065-.19.134-.377l.03-.084q.07-.187.142-.37l.035-.087q.073-.183.15-.363l.037-.088q.075-.173.151-.343l.047-.102q.075-.162.152-.322l.053-.11q.078-.16.159-.317l.055-.108q.083-.159.169-.316l.055-.101q.088-.16.18-.319l.06-.106.187-.312.06-.098q.091-.15.186-.295l.073-.114.185-.278.081-.12.19-.27.082-.116q.097-.135.197-.268l.084-.11q.103-.135.208-.27l.083-.105q.11-.137.22-.271l.085-.102q.107-.127.215-.252l.098-.112.214-.24.106-.115q.108-.117.217-.231l.111-.116a20 20 0 0 1 .565-.56l.1-.095.251-.232.122-.109a21 21 0 0 1 .952-.799l.122-.095.251-.191.14-.104a20 20 0 0 1 1.475-.987l.12-.073.288-.168.115-.066q.147-.083.295-.163l.12-.065q.15-.081.303-.159l.112-.057.325-.16.095-.046q.172-.082.347-.16l.097-.044q.18-.081.363-.158l.088-.037q.184-.077.372-.15l.081-.032q.185-.072.37-.14l.08-.028q.186-.068.374-.131l.08-.027q.19-.063.383-.123l.076-.023q.195-.06.39-.116l.073-.02q.202-.056.405-.11l.061-.015q.218-.055.435-.105l.031-.007q.233-.054.469-.102l.017-.003q.23-.046.462-.088l.04-.007q.222-.039.446-.073l.048-.007q.22-.033.443-.062l.053-.006q.22-.028.444-.05l.051-.006q.226-.022.453-.04L18.04.53q.233-.017.467-.03L18.538.5q.244-.012.489-.019h.013a21 21 0 0 1 1.018 0h.014q.244.006.489.019l.031.002q.235.011.468.029l.044.003q.228.018.454.04l.05.005q.224.023.445.05l.053.007q.222.03.443.062l.047.007q.226.034.448.074l.038.006q.233.042.464.088l.015.003q.237.048.47.102l.029.007q.219.05.436.105l.061.016q.205.052.406.109l.072.02q.198.056.392.116l.075.023q.193.06.385.124l.076.025q.19.064.377.132l.078.028q.188.069.373.141l.077.03q.19.074.378.153l.08.033q.184.078.367.16l.096.043q.176.08.35.162l.09.043q.165.08.328.162l.11.056.305.16.118.063.296.165.116.066q.144.083.287.168l.121.073a22 22 0 0 1 .833.534 20 20 0 0 1 1.035.75l.118.092q.125.097.246.197l.122.1q.118.097.235.197l.124.106a22 22 0 0 1 .6.54l.1.096.229.222.117.116a20 20 0 0 1.546.569l.107.115.216.242.094.108q.11.127.217.255l.082.097.223.275.08.102q.11.14.218.281l.073.098q.104.138.204.277l.075.105q.1.14.198.283l.072.107q.099.143.193.29l.066.1q.098.154.193.308l.055.09q.096.158.19.32l.057.097q.094.162.184.327l.05.091q.09.165.176.33l.048.093q.083.164.164.329l.048.098q.08.166.158.336l.04.088q.08.174.156.352l.035.082q.076.182.15.367l.035.086q.073.185.142.372l.03.08q.069.188.135.38l.027.08.122.37.028.093q.048.155.093.31a1.78 1.78 0 0 1-1.065 2.115c-4.302 1.686-10.784 2.759-18.035 2.759S5.817 18.494 1.515 16.808a1.78 1.78 0 0 1-1.066-2.115"></path><path fill="#BBD3E3" d="M36.224 23.102C34.838 30.992 27.9 36.99 19.55 36.99c-8.35 0-15.288-5.999-16.674-13.888 4.25-1.402 10.151-2.27 16.674-2.27 6.524 0 12.424.868 16.675 2.27m-33.35-5.806C4.262 9.406 11.199 3.408 19.55 3.408s15.289 5.998 16.675 13.888c-4.251 1.402-10.151 2.27-16.675 2.27-6.523 0-12.423-.868-16.674-2.27"></path><path fill="#729BB6" d="M33.359 22.296c-1.02 6.657-6.814 11.758-13.81 11.758-6.995 0-12.79-5.101-13.81-11.758 3.875-.922 8.647-1.466 13.81-1.466s9.936.544 13.81 1.466m-27.62-4.197c1.02-6.656 6.815-11.757 13.81-11.757 6.996 0 12.79 5.1 13.81 11.757-3.874.922-8.647 1.466-13.81 1.466S9.614 19.021 5.74 18.1"></path><path fill="#56788E" d="M30.454 21.707c-.74 5.318-5.34 9.414-10.905 9.414S9.385 27.025 8.644 21.707c3.258-.559 6.968-.875 10.905-.875s7.648.316 10.905.875m-21.81-3.015c.74-5.318 5.34-9.414 10.905-9.414s10.165 4.096 10.905 9.414c-3.258.559-6.968.875-10.905.875s-7.647-.316-10.905-.875"></path><path fill="#678AA1" d="M27.526 21.285c-.534 3.897-3.902 6.9-7.977 6.9s-7.442-3.003-7.977-6.9a69 69 0 0 1 7.977-.454c2.801 0 5.487.16 7.977.454m-15.954-2.172c.535-3.897 3.902-6.9 7.977-6.9s7.443 3.003 7.977 6.9c-2.49.294-5.176.454-7.977.454-2.8 0-5.486-.16-7.977-.454"></path></g><defs><clipPath id="PartnerAstanaHubLogo_svg__a"><path fill="#fff" d="M0 .282h150v40H0z"></path></clipPath></defs></svg>