<svg xmlns="http://www.w3.org/2000/svg" width="110" height="43" fill="none"><g fill="#678AA1"><path d="M15.97 3.819c-.14.18-.27.367-.409.559a7.8 7.8 0 0 0-.816 1.76 9.4 9.4 0 0 0-.678 3.88C11.209 6.724 5.14 4.133 0 7.354 16.794 9.95 24.046 23.168 20.318 42.282h.118c12.87-11.06.817-22.897-1.53-26.904-1.801-3.082-2.348-6.554-.923-9.009.649-1.017 1.588-2.095 2.756-2.546a6.24 6.24 0 0 1 5.5.12 5.6 5.6 0 0 1 1.98 1.728c1.103 1.596.792 4.342.119 5.4-.674 1.058-.523.718-.842 1.018-.837.762-2.478.798-3.23.399a1.8 1.8 0 0 1-.992-.91.33.33 0 0 1 0-.331.38.38 0 0 1 .278-.172 2.7 2.7 0 0 0 1.318-.35c.4-.226.733-.552.965-.943a2.57 2.57 0 0 0 .3-1.724 2.6 2.6 0 0 0-.876-1.525 3.168 3.168 0 0 0-2.801-.527c-3.892 1.174-3.471 7.124.175 9.04a5.9 5.9 0 0 0 2.736.715c.836.033 1.67-.1 2.451-.393a6.2 6.2 0 0 0 2.094-1.308 7.2 7.2 0 0 0 1.225-1.512 8.5 8.5 0 0 0 1.11-2.894q.341.271.727.475c2.042 1.074 5.161-.347 5.847-1.425.198-.276.337-.588.409-.918a.36.36 0 0 0-.026-.229.37.37 0 0 0-.325-.218.4.4 0 0 0-.172.024 6.77 6.77 0 0 1-5.022-.211 4.1 4.1 0 0 1-1.866-1.597c-.409-.539-.646-1.197-1.058-1.712a8.7 8.7 0 0 0-2.928-2.463A9.6 9.6 0 0 0 23.344.283a9.4 9.4 0 0 0-4.127.907 9.2 9.2 0 0 0-3.276 2.617M108.418 13.969a305 305 0 0 1-.918-5.638 28.9 28.9 0 0 0-6.804-.941c-6.98 0-11.142 3.34-11.142 7.275 0 4.614 5.46 6.617 8.925 8.048 4.059 1.636 7.03 3.066 7.03 6.089 0 3.022-2.375 4.903-6.492 4.903-5.624 0-8.057-4.13-8.868-6.623l-1.627.29c.38 1.958 1.083 5.476 1.463 6.333q1.321.525 2.705.857c1.738.399 3.516.604 5.301.613 7.195 0 12.009-3.435 12.009-7.72 0-4.62-5.103-6.501-9.355-8.176-4.253-1.676-6.873-3.062-6.873-6.045 0-2.226 1.838-4.453 6.005-4.453 4.706 0 6.169 2.822 7.087 5.394l1.571-.2zM72.787 8.648V7.457H62.542v1.19c3.039.123 4.037.68 4.252 2.639.264 2.345.366 4.705.306 7.063v10.47h-.13L48.826 7.456h-5.715v1.269c1.553.195 2.398.556 3.198 1.491s.873 1.191.873 4.303v9.362c0 3.896-.13 5.955-.267 7.274-.215 2.087-1.343 2.638-3.816 2.783v1.191h10.286V33.94c-2.949-.167-3.97-.679-4.168-2.85a70 70 0 0 1-.26-7.19V13.2h.09l18.184 21.94h1.639V18.35c-.06-2.4.027-4.801.26-7.191.17-1.831 1.214-2.388 3.646-2.51zM87.853 35.113v-1.19c-4.241-.257-4.655-.468-4.655-4.13v-17.02c0-3.619.414-3.897 4.655-4.125V7.457h-13.71v1.19c4.24.257 4.66.507 4.66 4.125v17.02c0 3.618-.42 3.896-4.66 4.13v1.191z"></path></g></svg>